# xmcd
#
# Track frame offsets:
#	150
#	11889
#	29934
#	44618
#	58082
#	70047
#	84081
#	99852
#	115883
#	134961
#	149272
#	161764
#	173128
#	186837
#	203101
#	217636
#	236075
#	250148
#
# Disc length: 3531 seconds
#
# Revision: 2
# Processed by: cddbd v1.5.2PL0 Copyright (c) Steve Scherf et al.
# Submitted via: EasyCDDAExtractor 10.0.5.1
#
DISCID=070dc912
DTITLE=Various Artist - 情．深．緣 - 至愛動人回憶CD3
DYEAR=2004
DGENRE=Oldies
TTITLE0=翁倩玉 - 海鷗
TTITLE1=蔡琴 - 恰似你的溫柔
TTITLE2=劉家昌 - 中華民族
TTITLE3=青山/美黛 - 相思河畔
TTITLE4=甄妮 - 玫瑰玫瑰我愛你
TTITLE5=紫薇 - 今宵多珍重
TTITLE6=青山 - 淚的小雨
TTITLE7=鳳飛飛 - 楓葉情
TTITLE8=美黛 - 意難忘
TTITLE9=歐陽菲菲 - 可愛的玫瑰花
TTITLE10=謝雷 - 多少柔情多少淚
TTITLE11=尤雅 - 梭羅河畔
TTITLE12=鄧麗君 - 誰來愛我
TTITLE13=陳芬蘭 - 我沒有騙你
TTITLE14=姚蘇蓉 - 你儂我儂
TTITLE15=張琍敏 - 月兒彎彎照九州
TTITLE16=陳盈潔 - 家家有本難唸經
TTITLE17=包娜娜 - 醒來吧!雷夢娜
EXTD=
EXTT0=
EXTT1=
EXTT2=
EXTT3=
EXTT4=
EXTT5=
EXTT6=
EXTT7=
EXTT8=
EXTT9=
EXTT10=
EXTT11=
EXTT12=
EXTT13=
EXTT14=
EXTT15=
EXTT16=
EXTT17=
PLAYORDER=
